<svg xmlns="http://www.w3.org/2000/svg" width="18.667" height="20" viewBox="0 0 18.667 20"><defs><style>.a{fill:#d1b452;}</style></defs><g transform="translate(-1629 -70)"><g transform="translate(1629 70)"><path class="a" d="M70.814,22H55.853A1.887,1.887,0,0,1,54,20.084V3.916A1.887,1.887,0,0,1,55.853,2H70.814a1.887,1.887,0,0,1,1.853,1.916V20.084A1.887,1.887,0,0,1,70.814,22ZM55.853,3.333a.574.574,0,0,0-.564.583V20.084a.574.574,0,0,0,.564.583H70.814a.574.574,0,0,0,.564-.583V3.916a.574.574,0,0,0-.564-.583Z" transform="translate(-54 -2)"/><path class="a" d="M137.327,96h-1.865a.674.674,0,0,0,0,1.345h.311a2.807,2.807,0,1,1-5.6,0h.311a.674.674,0,0,0,0-1.345h-1.865a.674.674,0,0,0,0,1.345h.311a4.054,4.054,0,1,0,8.083,0h.311a.674.674,0,0,0,0-1.345Z" transform="translate(-123.641 -93.3)"/></g></g></svg>