<svg xmlns="http://www.w3.org/2000/svg" width="32.258" height="21.757" viewBox="0 0 32.258 21.757"><defs><style>.a{fill:#3f3f3f;}</style></defs><g transform="translate(0 0)"><g transform="translate(0 0)"><path class="a" d="M20.279,234.25a.562.562,0,0,1-.562.59h-.9a3.9,3.9,0,0,0-7.145,0H0v-4.776H20.279Z" transform="translate(11.98 -217.302)"/><path class="a" d="M33.119,277.32a2.647,2.647,0,1,1-2.647,2.647A2.647,2.647,0,0,1,33.119,277.32Z" transform="translate(-5.894 -260.858)"/><path class="a" d="M275.345,192.172l2.521-1.108h7.861v7.83H284.2a3.9,3.9,0,0,0-7.145,0h-1.493a.562.562,0,0,1-.562-.59v-5.562A.608.608,0,0,1,275.345,192.172Z" transform="translate(-275 -181.355)"/><path class="a" d="M276.693,122.028a1.8,1.8,0,0,1,1.623-.966h3.646v4.228H275Z" transform="translate(-271.235 -116.833)"/><path class="a" d="M1.8,67.064H18.49A1.8,1.8,0,0,1,20.279,68.9v9.674H0V68.9s0-.006,0-.008A1.813,1.813,0,0,1,1.8,67.064Z" transform="translate(11.98 -67.064)"/><path class="a" d="M308.952,277.32a2.647,2.647,0,1,1-2.647,2.647h0A2.647,2.647,0,0,1,308.952,277.32Z" transform="translate(-303.324 -260.858)"/></g></g></svg>