<svg xmlns="http://www.w3.org/2000/svg" width="29.532" height="21.757" viewBox="0 0 29.532 21.757"><defs><style>.a{fill:#3f3f3f;}</style></defs><g transform="translate(0)"><g transform="translate(0 6.136)"><path class="a" d="M15.62,155.673a1.679,1.679,0,0,1-1.743,0L0,147.2v11.262a4.36,4.36,0,0,0,4.358,4.358H25.174a4.36,4.36,0,0,0,4.358-4.358V147.2Z" transform="translate(0 -147.2)"/></g><g transform="translate(0.139 0)"><path class="a" d="M27.082,57.088H6.267A4.333,4.333,0,0,0,2.048,60.5l14.644,8.926L31.3,60.5A4.333,4.333,0,0,0,27.082,57.088Z" transform="translate(-2.048 -57.088)"/></g></g></svg>