<svg xmlns="http://www.w3.org/2000/svg" width="40" height="40" viewBox="0 0 40 40"><defs><style>.a{fill:#fff;}.b{fill:#69675d;}</style></defs><g transform="translate(-1052 -1504)"><rect class="a" width="40" height="40" transform="translate(1052 1504)"/><g transform="translate(1062.119 1515.263)"><g transform="translate(0 0)"><path class="b" d="M19.737,38.255l-9.311-4.007a.791.791,0,0,0-.626,0L.489,38.255a.8.8,0,0,0,0,1.464L9.8,43.7a.791.791,0,0,0,.622,0l9.311-3.98a.8.8,0,0,0,0-1.464ZM10.113,42.1,2.82,38.984l7.293-3.138,7.293,3.138Z" transform="translate(-0.008 -34.184)"/></g><g transform="translate(0 11.912)"><g transform="translate(0 0)"><path class="b" d="M20.145,336.887a.792.792,0,0,0-1.042-.418l-9,3.872-9-3.872a.8.8,0,0,0-.626,1.463l9.311,4.007a.792.792,0,0,0,.626,0l9.311-4.007A.8.8,0,0,0,20.145,336.887Z" transform="translate(0 -336.404)"/></g></g><g transform="translate(0 7.951)"><g transform="translate(0 0)"><path class="b" d="M20.153,236.372a.793.793,0,0,0-1.041-.42l-9,3.847-9-3.847a.8.8,0,0,0-.622,1.464L9.8,241.4a.792.792,0,0,0,.622,0l9.311-3.98A.8.8,0,0,0,20.153,236.372Z" transform="translate(-0.007 -235.889)"/></g></g></g></g></svg>