<svg xmlns="http://www.w3.org/2000/svg" width="73" height="52.38" viewBox="0 0 73 52.38"><defs><style>.a{fill:#d1b452;}</style></defs><g transform="translate(-680 -4867)"><g transform="translate(1022.989 6451.177) rotate(180)"><path class="a" d="M599.942,1563.573H599.1q-5.148,0-10.3.006c-1.771,0-2.611-.832-2.611-2.583q0-13.326,0-26.651c0-1.741.811-2.546,2.559-2.546q13.358,0,26.716,0a2.2,2.2,0,0,1,2.505,2.521q0,13.326-.01,26.651a4.978,4.978,0,0,1-.247,1.529q-3.27,9.891-6.578,19.77a2.3,2.3,0,0,1-2.646,1.9q-3.03.014-6.06,0a2.179,2.179,0,0,1-2.478-2.483q-.011-8.634-.008-17.268C599.942,1564.159,599.942,1563.9,599.942,1563.573Zm4.293,16.317c.884,0,1.684-.031,2.48.011a.778.778,0,0,0,.924-.643c1.929-5.854,3.89-11.7,5.828-17.55a4.125,4.125,0,0,0,.207-1.269q.018-11.795.009-23.59v-.714H590.52v23.156h1.2c3.41,0,6.821-.007,10.231.006a2.118,2.118,0,0,1,2.28,2.156c.012.173.007.347.007.521q0,8.5-.006,17.008Z" transform="translate(-274.982 0)"/><path class="a" d="M283.723,1563.574h-.85q-5.115,0-10.231,0c-1.876,0-2.654-.782-2.654-2.655q0-13.261,0-26.522c0-1.832.773-2.6,2.625-2.6h26.522c1.842,0,2.634.781,2.634,2.6q0,13.261-.01,26.522a5.186,5.186,0,0,1-.254,1.595q-3.264,9.86-6.568,19.706a2.354,2.354,0,0,1-2.736,1.955c-1.977,0-3.953,0-5.93-.011-1.75-.009-2.553-.808-2.554-2.556q0-8.537,0-17.073C283.723,1564.259,283.723,1563.978,283.723,1563.574Zm-9.4-27.462v23.181h.816q5.214,0,10.427,0a2.159,2.159,0,0,1,2.442,2.444c.01,1.108.005,2.216.005,3.324,0,4.714.006,9.428-.014,14.142,0,.542.156.73.7.7a17.746,17.746,0,0,1,1.954,0,.637.637,0,0,0,.735-.534q2.949-8.9,5.922-17.8a3.5,3.5,0,0,0,.17-1.081q.014-11.828.007-23.657v-.719Z" transform="translate(0 -0.002)"/></g></g></svg>