<svg xmlns="http://www.w3.org/2000/svg" width="20.21" height="18.78" viewBox="0 0 20.21 18.78"><defs><style>.a{fill:#69675d;}</style></defs><g transform="translate(0 0)"><path class="a" d="M18.557,18.662a5.522,5.522,0,0,0-8.094,0l-.357.377-.357-.377a5.526,5.526,0,0,0-7.81-.287q-.149.138-.287.287a6.2,6.2,0,0,0,0,8.428l7.929,8.362a.722.722,0,0,0,1.021.028l.028-.028,7.926-8.362A6.2,6.2,0,0,0,18.557,18.662Zm-1.045,7.432h0l-7.4,7.81L2.7,26.094a4.736,4.736,0,0,1,0-6.439,4.082,4.082,0,0,1,5.769-.232q.121.111.232.232l.88.929a.744.744,0,0,0,1.049,0l.88-.928a4.082,4.082,0,0,1,5.769-.232q.121.111.232.232A4.693,4.693,0,0,1,17.512,26.094Z" transform="translate(0 -16.896)"/></g></svg>