<svg xmlns="http://www.w3.org/2000/svg" width="97.68" height="21.805" viewBox="0 0 97.68 21.805"><defs><style>.a{fill:#3f3f3f;}</style></defs><g transform="translate(0 0)"><path class="a" d="M37.268,0h-4.81A12.309,12.309,0,0,1,27.5,9.921l-1.9,1.423L32.976,21.4h6.061l-6.794-9.253A17,17,0,0,0,37.268,0Z" transform="translate(-20.078 0)"/><rect class="a" width="4.917" height="21.395" transform="translate(0 0)"/><rect class="a" width="4.637" height="21.395" transform="translate(20.382 0)"/><path class="a" d="M271.972,28.7a5.365,5.365,0,0,0-4.572,2.07V29.11H263v14.8h4.465V36.141a3.116,3.116,0,0,1,3.321-3.343c1.941,0,3.063,1.165,3.063,3.321v7.808h4.421V34.5C278.27,31.051,275.531,28.7,271.972,28.7Z" transform="translate(-206.277 -22.51)"/><path class="a" d="M136.607,29.11v.949a7.7,7.7,0,0,0-4.4-1.359,7.808,7.808,0,0,0,0,15.615,7.7,7.7,0,0,0,4.4-1.359v.949h4.421V29.11ZM132.574,40.3a3.8,3.8,0,1,1,4.012-3.8A3.907,3.907,0,0,1,132.574,40.3Z" transform="translate(-97.569 -22.51)"/><path class="a" d="M216.829,32.52V30.6H212.3V45.4h4.551v-6.9c0-2.329,2.523-3.58,4.27-3.58h.043V30.6A5.555,5.555,0,0,0,216.829,32.52Z" transform="translate(-166.511 -24)"/><path class="a" d="M353.207,29.11v.949a7.7,7.7,0,0,0-4.4-1.359,7.808,7.808,0,1,0,0,15.615,7.7,7.7,0,0,0,4.4-1.359v.949h4.421V29.11ZM349.174,40.3a3.8,3.8,0,1,1,4.012-3.8A3.907,3.907,0,0,1,349.174,40.3Z" transform="translate(-267.454 -22.51)"/><g transform="translate(92.095 6.212)"><path class="a" d="M431.1,31.345A.341.341,0,0,0,430.71,31h-.41v1.122h.194v-.41h.216l.173.41h.216l-.194-.453A.335.335,0,0,0,431.1,31.345Zm-.388.173h-.216v-.345h.216c.129,0,.194.065.194.173S430.861,31.518,430.71,31.518Z" transform="translate(-429.588 -30.526)"/><path class="a" d="M428.057,28.8A1.059,1.059,0,0,0,427,29.857a1.073,1.073,0,0,0,1.057,1.057,1.057,1.057,0,1,0,0-2.114Zm0,1.92a.847.847,0,0,1-.841-.863.861.861,0,0,1,.841-.863.847.847,0,0,1,.841.863A.861.861,0,0,1,428.057,30.72Z" transform="translate(-427 -28.8)"/></g><path class="a" d="M429.882,74.9a2.782,2.782,0,1,0,2.782,2.782A2.789,2.789,0,0,0,429.882,74.9Z" transform="translate(-334.984 -58.746)"/></g></svg>